<svg xmlns="http://www.w3.org/2000/svg" width="35" height="41" viewBox="0 0 35 41" fill="none">
    <path d="M14.4884 10.6519C17.1887 10.6519 19.3857 8.45529 19.3857 5.75464C19.3857 3.05441 17.1887 0.857422 14.4884 0.857422C11.7878 0.857422 9.59082 3.05441 9.59082 5.75464C9.59082 8.45529 11.7878 10.6519 14.4884 10.6519ZM14.4884 1.65305C16.7501 1.65305 18.5901 3.49307 18.5901 5.75464C18.5901 8.01666 16.7501 9.85666 14.4884 9.85666C12.2264 9.85666 10.3864 8.01666 10.3864 5.75464C10.3864 3.49307 12.2264 1.65305 14.4884 1.65305Z" fill="white" stroke="white"/>
    <path d="M18.9884 30.6541C18.7684 30.6541 18.5904 30.8321 18.5904 31.0521V37.7583C18.5904 38.6931 17.8301 39.4534 16.8953 39.4534H16.7386C15.8185 39.4534 15.0535 38.7795 14.9108 37.8993V28.5378C14.9108 28.3183 14.7327 28.1402 14.5128 28.1402C14.2932 28.1402 14.1152 28.3183 14.1152 28.5378V37.4689C14.1003 37.5108 14.0907 37.5549 14.0907 37.6016C14.0907 38.6229 13.2602 39.4534 12.239 39.4534H12.0819C11.1475 39.4534 10.3867 38.6931 10.3867 37.7583V17.6702C10.3867 17.4642 10.2545 17.2818 10.0581 17.2163C9.9686 17.1862 9.65482 17.119 9.36811 17.5009L9.34107 17.5371L9.33145 17.5589L6.23279 22.0293C5.80942 22.6525 4.97672 23.7746 4.96756 23.7872C4.8938 23.8876 4.82486 23.9823 4.7594 24.0722C4.35916 24.6217 4.11783 24.9534 3.71018 25.2707C3.28513 25.6019 2.83387 25.5129 2.5532 25.3195C2.28919 25.1376 2.05963 24.7714 2.20713 24.2904C2.2927 24.012 2.43146 23.7431 2.52835 23.5651C4.25574 20.3914 6.04074 17.1692 6.0582 17.1369L6.06256 17.1295C7.0694 15.2166 8.18885 13.3709 9.55011 12.8262C10.035 12.6325 10.9345 12.5456 11.6109 12.5456H14.4887H17.3662C18.0426 12.5456 18.9426 12.6325 19.427 12.8262C20.2134 13.1409 20.9698 13.8942 21.8082 15.1974C21.8841 15.3156 22.0124 15.3802 22.1429 15.3802C22.2167 15.3802 22.2913 15.3597 22.3576 15.317C22.5427 15.1982 22.5959 14.9521 22.4772 14.7671C21.545 13.3181 20.67 12.4666 19.7224 12.0878C19.1001 11.8386 18.0972 11.75 17.3662 11.75H14.4887H11.6109C10.8799 11.75 9.87699 11.8386 9.25464 12.0878C7.65509 12.7276 6.4379 14.7086 5.36035 16.755C5.29007 16.882 3.53171 20.0566 1.82959 23.1849C1.64939 23.5157 1.52805 23.7929 1.44687 24.0569C1.22122 24.7919 1.47827 25.5447 2.10196 25.9742C2.7461 26.4185 3.56922 26.3888 4.19855 25.8987C4.69477 25.5125 4.99155 25.1048 5.40271 24.5405C5.46726 24.4515 5.53534 24.3581 5.60739 24.2603C5.64185 24.2137 6.45841 23.1134 6.88874 22.4792L9.59113 18.5806V37.7583C9.59113 39.1317 10.7084 40.249 12.0819 40.249H12.239C13.1878 40.249 14.0214 39.7471 14.4887 38.9951C14.9562 39.7471 15.7898 40.249 16.7386 40.249H16.8953C18.2687 40.249 19.386 39.1317 19.386 37.7583V31.0521C19.386 30.8321 19.2079 30.6541 18.9884 30.6541Z" fill="white" stroke="white"/>
    <path d="M33.7652 17.3954C30.5788 17.3954 28.0144 16.2524 25.9247 13.9018C25.9191 13.8957 25.9129 13.8913 25.9073 13.8856C25.9016 13.8804 25.8972 13.8738 25.8915 13.8686C25.8872 13.8647 25.8824 13.8625 25.878 13.859C25.8671 13.8499 25.8558 13.842 25.844 13.8345C25.8335 13.8276 25.8231 13.8206 25.8121 13.8149C25.8003 13.8088 25.7881 13.8035 25.7759 13.7983C25.7641 13.7939 25.7523 13.7892 25.7401 13.7857C25.7279 13.7817 25.7157 13.7791 25.703 13.7769C25.6903 13.7743 25.6782 13.7722 25.665 13.7708C25.6524 13.77 25.6397 13.7695 25.627 13.7695C25.6144 13.7695 25.6022 13.77 25.5895 13.7708C25.5764 13.7722 25.5638 13.7743 25.5511 13.7769C25.5389 13.7796 25.5267 13.7817 25.515 13.7857C25.5023 13.7892 25.4905 13.7939 25.4782 13.7988C25.466 13.8035 25.4543 13.8088 25.4425 13.8149C25.4316 13.8206 25.4211 13.8276 25.4102 13.8345C25.3988 13.842 25.3875 13.8499 25.3765 13.8586C25.3722 13.8625 25.3674 13.8647 25.363 13.8686C25.3569 13.8738 25.3526 13.8804 25.3474 13.8856C25.3416 13.8913 25.3351 13.8957 25.3299 13.9018C23.2403 16.2524 20.6757 17.3954 17.4894 17.3954C17.2698 17.3954 17.0918 17.5735 17.0918 17.793V25.2115C17.0918 28.8976 21.5735 31.4311 24.5395 33.1074C24.8568 33.2867 25.1566 33.4565 25.4268 33.6141L25.429 33.615C25.4394 33.6211 25.4499 33.6259 25.4608 33.6307C25.466 33.6333 25.4713 33.6364 25.477 33.6385C25.4844 33.6416 25.4926 33.6438 25.5005 33.6464C25.5092 33.6494 25.5176 33.6529 25.5267 33.6551C25.5599 33.6638 25.5935 33.6682 25.6267 33.6682C25.6603 33.6682 25.6947 33.6638 25.7274 33.6551C25.7362 33.6529 25.7453 33.6494 25.7541 33.6464C25.762 33.6438 25.7698 33.6416 25.7776 33.6385C25.7833 33.6364 25.7885 33.6333 25.7943 33.6307C25.8047 33.6259 25.8152 33.6211 25.8253 33.615L25.8274 33.6141C26.098 33.4565 26.3979 33.2867 26.7151 33.1074C29.6811 31.4311 34.1628 28.8976 34.1628 25.2115V17.793C34.1628 17.5735 33.9848 17.3954 33.7652 17.3954ZM33.3672 25.2115C33.3672 28.4337 29.1286 30.8297 26.3236 32.4152C26.0797 32.5527 25.8466 32.6849 25.627 32.8106C25.408 32.6849 25.1749 32.5527 24.931 32.4152C22.126 30.8297 17.887 28.4337 17.887 25.2115V18.1853C20.9835 18.0972 23.5226 16.9703 25.627 14.7528C27.732 16.9703 30.2711 18.0972 33.3672 18.1853V25.2115Z" fill="white" stroke="white"/>
    <path d="M23.8534 19.3658V22.2484H20.9704C20.7509 22.2484 20.5728 22.4265 20.5728 22.6464V25.4937C20.5728 25.7132 20.7509 25.8913 20.9704 25.8913H23.8534V28.7744C23.8534 28.9939 24.0315 29.1719 24.251 29.1719H27.0983C27.3183 29.1719 27.4963 28.9939 27.4963 28.7744V25.8913H30.379C30.5989 25.8913 30.777 25.7132 30.777 25.4937V22.6464C30.777 22.4265 30.5989 22.2484 30.379 22.2484H27.4963V19.3658C27.4963 19.1458 27.3183 18.9678 27.0983 18.9678H24.251C24.0315 18.9678 23.8534 19.1458 23.8534 19.3658ZM24.649 22.6464V19.7633H26.7007V22.6464C26.7007 22.866 26.8788 23.044 27.0983 23.044H29.9814V25.0957H27.0983C26.8788 25.0957 26.7007 25.2737 26.7007 25.4937V28.3763H24.649V25.4937C24.649 25.2737 24.4709 25.0957 24.251 25.0957H21.3684V23.044H24.251C24.4709 23.044 24.649 22.866 24.649 22.6464Z" fill="white" stroke="white"/>
</svg>