<svg xmlns="http://www.w3.org/2000/svg" width="19" height="23" viewBox="0 0 19 23" fill="none">
    <path d="M9.49986 1.27051C5.2263 1.27051 1.74951 4.7475 1.74951 9.02094C1.74951 12.2274 6.19174 18.2791 8.55668 21.2736C9.03826 21.8834 9.96147 21.8834 10.4431 21.2736C12.808 18.2791 17.2502 12.2274 17.2502 9.02094C17.2502 4.7475 13.7734 1.27051 9.49986 1.27051ZM12.9538 9.30334C12.8201 10.9816 11.4606 12.3411 9.78252 12.4748C7.64983 12.6449 5.87592 10.8708 6.04594 8.73828C6.17977 7.06006 7.5393 5.70044 9.21752 5.56702C11.3501 5.39703 13.1236 7.17084 12.9538 9.30334Z" stroke="white" stroke-width="2"/>
</svg>