<svg xmlns="http://www.w3.org/2000/svg" width="56" height="65" viewBox="0 0 56 65" fill="none">
    <path d="M54.6545 62.6831H42.0785V57.5982C45.8436 56.1201 49.0671 53.6366 51.4209 50.3872C53.9302 46.9232 55.2562 42.8446 55.2562 38.5923C55.2562 30.2384 50.0192 22.7248 42.1284 19.6045L44.6747 17.4328C45.004 17.1527 45.0436 16.6576 44.7623 16.3284L43.9246 15.3454L51.9993 8.45914C52.3283 8.17813 52.3679 7.68412 52.0877 7.35495L46.5182 0.82468C46.3833 0.666416 46.1915 0.568454 45.9845 0.55228C45.7783 0.5358 45.572 0.602085 45.4139 0.73685L37.3392 7.624L36.5005 6.64072C36.3664 6.4827 36.174 6.38474 35.9669 6.36844C35.7606 6.35129 35.5543 6.41837 35.3962 6.55313L14.6284 24.2641C14.2995 24.545 14.2607 25.0391 14.541 25.3683L15.8324 26.8824L11.3972 30.6656C11.0681 30.9457 11.0287 31.4406 11.3097 31.7697L15.9717 37.2372C16.1067 37.3952 16.2993 37.4933 16.5062 37.5096C16.5269 37.5112 16.5475 37.5122 16.5681 37.5122C16.7539 37.5122 16.9341 37.446 17.076 37.3247L21.512 33.5419L22.803 35.0569C22.9378 35.2141 23.1302 35.3122 23.3375 35.3292C23.358 35.331 23.3787 35.331 23.3994 35.331C23.585 35.331 23.7655 35.2657 23.9071 35.1445L40.7646 20.7674C48.4973 23.4519 53.6895 30.6087 53.6895 38.5923C53.6895 46.0861 49.0481 52.924 42.0401 55.9206C41.6576 52.1689 38.4788 49.2322 34.6279 49.2322C30.6644 49.2322 27.4143 52.3432 27.1901 56.2516C24.7175 55.3226 22.4333 53.8926 20.5358 52.0776C19.0157 50.6235 17.7653 48.9607 16.8096 47.1259H29.2516C29.684 47.1259 30.0345 46.7752 30.0345 46.343V41.7212C30.0345 41.289 29.684 40.9384 29.2516 40.9384H2.1969C1.76367 40.9384 1.41309 41.289 1.41309 41.7212V46.343C1.41309 46.7752 1.76367 47.1259 2.1969 47.1259H15.0626C16.1341 49.4006 17.6104 51.4477 19.453 53.2094C21.6401 55.3011 24.3008 56.9192 27.1771 57.912V62.6831H14.6011C14.1688 62.6831 13.8181 63.0338 13.8181 63.4668C13.8181 63.8991 14.1688 64.2498 14.6011 64.2498H27.9601H41.2957H54.6545C55.087 64.2498 55.4376 63.8991 55.4376 63.4668C55.4376 63.0338 55.087 62.6831 54.6545 62.6831ZM45.8348 2.43759L50.387 7.77524L42.908 14.1534L38.3558 8.81589L45.8348 2.43759ZM20.4955 32.3507L16.6558 35.6249L13.0095 31.3486L16.8491 28.0744L18.8394 30.4086L20.4955 32.3507ZM23.4869 33.4438L21.0042 30.5331L17.5325 26.4623L16.2415 24.9482L35.8173 8.25296L36.6543 9.23526L36.6552 9.23606L42.2238 15.7665L43.0626 16.7495L23.4869 33.4438ZM2.9798 42.505H28.4678V45.5592H2.9798V42.505ZM28.7429 62.6831V56.6831C28.7429 53.4381 31.3829 50.7981 34.6279 50.7981C37.8729 50.7981 40.5128 53.4381 40.5128 56.6831V62.6831H28.7429Z" fill="white" stroke="white"/>
    <path d="M34.6279 54.5186C33.0682 54.5186 31.7998 55.7871 31.7998 57.347C31.7998 58.9067 33.0682 60.1749 34.6279 60.1749C36.1876 60.1749 37.4561 58.9067 37.4561 57.347C37.4561 55.7871 36.1876 54.5186 34.6279 54.5186ZM34.6279 58.6086C33.9319 58.6086 33.3663 58.0428 33.3663 57.347C33.3663 56.6508 33.9319 56.0854 34.6279 56.0854C35.3243 56.0854 35.8895 56.6508 35.8895 57.347C35.8895 58.0428 35.3243 58.6086 34.6279 58.6086Z" fill="white" stroke="white"/>
</svg>