<?xml version="1.0" encoding="iso-8859-1"?>
<!-- Uploaded to: SVG Repo, www.svgrepo.com, Generator: SVG Repo Mixer Tools -->
<svg fill="#ffffff" height="60" width="60" version="1.1" id="Layer_1" xmlns="http://www.w3.org/2000/svg" xmlns:xlink="http://www.w3.org/1999/xlink"
	 viewBox="0 0 512 512" xml:space="preserve">
<g>
	<g>
		<path d="M486.881,25.653H161.937c-13.851,0-25.119,11.268-25.119,25.119v78.507c-0.311,0.078-0.624,0.142-0.934,0.23
			l-76.489,21.65c-4.838,1.369-8.088,5.7-8.088,10.778c0,5.077,3.25,9.408,8.087,10.778l25.379,7.184l-4.595,13.787
			c-1.134,3.403-1.098,7.094,0.021,10.47c-7.739,11.356-11.808,24.387-11.808,38.007c0,14.823,4.845,28.938,14.018,40.973
			l2.011,16.084c1.044,8.352,6.162,15.588,13.691,19.351l13.035,6.517v12.648c0,3.918-2.496,7.381-6.212,8.618l-27.919,9.307
			c-10.273,3.425-17.175,13.001-17.175,23.83v90.823H8.017c-4.427,0-8.017,3.589-8.017,8.017c0,4.427,3.589,8.017,8.017,8.017
			h273.637c4.427,0,8.017-3.589,8.017-8.017c0-4.427-3.589-8.017-8.017-8.017h-51.859v-90.822c0-10.829-6.903-20.406-17.176-23.83
			l-27.918-9.307c-3.715-1.239-6.212-4.702-6.212-8.618v-5.31h308.394c13.851,0,25.119-11.268,25.119-25.119V50.772
			C512,36.922,500.732,25.653,486.881,25.653z M80.189,161.937l60.061-17.002c2.989-0.846,6.146-0.846,9.133,0l60.062,17.002
			l-60.061,17.002c-2.988,0.845-6.146,0.845-9.133,0L80.189,161.937z M197.433,215.1c5.104,8.223,7.776,17.463,7.776,27.062
			c0,1.583-0.081,3.156-0.228,4.719l-25.099-26.767L197.433,215.1z M152.834,211.167v-16.575c0.306-0.077,0.614-0.14,0.917-0.226
			l35.666-10.096l4.829,14.485c0.013,0.038,0.024,0.125,0.012,0.23c-0.154,0.151-0.295,0.311-0.434,0.471L152.834,211.167z
			 M136.8,194.592v16.575l-40.968-11.704c-0.147-0.171-0.298-0.339-0.462-0.498c-0.006-0.095,0.005-0.173,0.017-0.208l4.828-14.485
			l35.669,10.095C136.189,194.452,136.496,194.515,136.8,194.592z M86.028,239.434c-0.518,0-1.03,0.058-1.532,0.155
			c0.434-8.676,3.059-17.005,7.706-24.49l50.413,14.404c0.032,0.01,0.066,0.012,0.098,0.021
			C117.485,239.249,86.44,239.434,86.028,239.434z M85.538,470.312h-9.665v-90.821h0.001c0-3.918,2.496-7.381,6.212-8.62
			l27.919-9.307c0.056-0.018,0.108-0.043,0.162-0.062c7.402,6.91,16.685,11.446,26.636,13.038l0.011,27.362h-34.736
			c-9.136,0-16.568,7.432-16.568,16.568v51.307C85.511,469.958,85.533,470.134,85.538,470.312z M166.564,351.485
			c-6.122,4.918-13.767,7.663-21.747,7.663c-7.962,0-15.622-2.746-21.748-7.662c2.613-3.992,4.111-8.732,4.111-13.75v-4.676
			c5.572,2.56,11.602,3.857,17.637,3.857s12.065-1.297,17.637-3.857v4.676C162.454,342.754,163.95,347.493,166.564,351.485z
			 M188.125,469.779c0,0.295-0.239,0.534-0.534,0.534h-85.511c-0.295,0-0.534-0.239-0.534-0.534v-51.307
			c0-0.295,0.239-0.534,0.534-0.534h42.756c0.001,0,0.002,0,0.003,0h42.753c0.295,0,0.534,0.239,0.534,0.534V469.779z
			 M179.478,361.508c0.051,0.017,0.099,0.04,0.151,0.057l27.918,9.307c3.718,1.239,6.214,4.703,6.214,8.62v90.822h-9.63
			c0.005-0.179,0.027-0.354,0.027-0.534v-51.307c0-9.136-7.432-16.568-16.568-16.568h-34.742l-0.011-27.364
			C162.798,372.95,172.076,368.426,179.478,361.508z M189.306,297.23c-0.378,3.022-2.229,5.637-4.953,7l-27.823,13.912
			c-7.335,3.666-16.09,3.665-23.424,0l-27.823-13.912c-2.724-1.363-4.575-3.98-4.953-7l-5.261-42.096
			c16.635-1.028,52.262-5.215,74.813-22.248l24.236,25.848L189.306,297.23z M486.881,316.393H195.086
			c5.558-4.047,9.26-10.219,10.129-17.174l0.125-0.997h264.439c4.427,0,8.017-3.589,8.017-8.017s-3.589-8.017-8.017-8.017h-9.086
			V67.875c0-4.427-3.589-8.017-8.017-8.017h-42.756c-4.427,0-8.017,3.589-8.017,8.017v214.313h-18.171V136.284
			c0-4.427-3.589-8.017-8.017-8.017H332.96c-4.427,0-8.017,3.589-8.017,8.017v145.904h-18.171v-77.495
			c0-4.427-3.589-8.017-8.017-8.017H256c-4.427,0-8.017,3.589-8.017,8.017v77.495H207.93c8.708-11.832,13.313-25.63,13.313-40.026
			c0-13.62-4.068-26.651-11.808-38.007c1.119-3.376,1.155-7.066,0.021-10.47l-4.596-13.787l17.451-4.94v38.286
			c0,4.427,3.589,8.017,8.017,8.017s8.017-3.589,8.017-8.017v-51.307c0-0.305-0.02-0.605-0.053-0.901
			c-0.359-4.683-3.503-8.589-8.052-9.877l-76.489-21.652c-0.298-0.084-0.6-0.145-0.899-0.221V50.772c0-5.01,4.076-9.086,9.086-9.086
			H486.88c5.01,0,9.086,4.076,9.086,9.086v256.534h0.001C495.967,312.317,491.891,316.393,486.881,316.393z M264.017,282.188V212.71
			h26.722v69.478H264.017z M340.977,282.188V144.301h26.722v137.887H340.977z M417.937,282.188V75.891h26.722v206.297H417.937z"/>
	</g>
</g>
<g>
	<g>
		<path d="M144.878,436.109h-0.086c-4.427,0-7.974,3.589-7.974,8.017c0,4.427,3.632,8.017,8.059,8.017s8.017-3.589,8.017-8.017
			C152.895,439.698,149.305,436.109,144.878,436.109z"/>
	</g>
</g>
</svg>